<?xml version="1.0" encoding="utf-8"?>
<!-- Generator: Adobe Illustrator 16.0.0, SVG Export Plug-In . SVG Version: 6.00 Build 0)  -->
<!DOCTYPE svg PUBLIC "-//W3C//DTD SVG 1.1//EN" "http://www.w3.org/Graphics/SVG/1.1/DTD/svg11.dtd">
<svg version="1.1" id="Layer_1" xmlns="http://www.w3.org/2000/svg" xmlns:xlink="http://www.w3.org/1999/xlink" x="0px" y="0px"
	 width="52.368px" height="42.524px" viewBox="0 0 52.368 42.524" enable-background="new 0 0 52.368 42.524" xml:space="preserve">
<g>
	<rect x="2" y="38.524" width="48.368" height="4"/>
</g>
<g>
	<g>
		<rect x="2" y="27.858" width="48.368" height="4"/>
	</g>
	<g>
		<path d="M52.368,31.858H0V0.314h52.368V31.858z M4,27.858h44.368V4.314H4V27.858z"/>
	</g>
	<g>
		<path d="M26.185,25.481c-5.181,0-9.396-4.215-9.396-9.396c0-5.18,4.215-9.395,9.396-9.395c5.18,0,9.395,4.214,9.395,9.395
			C35.579,21.266,31.364,25.481,26.185,25.481z M26.185,10.69c-2.975,0-5.396,2.42-5.396,5.395c0,2.976,2.42,5.396,5.396,5.396
			c2.975,0,5.395-2.421,5.395-5.396C31.579,13.11,29.159,10.69,26.185,10.69z"/>
	</g>
	<g>
		<g>
			<rect x="38.89" y="14.085" width="6.534" height="4"/>
		</g>
		<g>
			<rect x="6.943" y="14.085" width="6.534" height="4"/>
		</g>
	</g>
</g>
</svg>
