<?xml version="1.0" encoding="utf-8"?>
<!-- Generator: Adobe Illustrator 16.0.0, SVG Export Plug-In . SVG Version: 6.00 Build 0)  -->
<!DOCTYPE svg PUBLIC "-//W3C//DTD SVG 1.1//EN" "http://www.w3.org/Graphics/SVG/1.1/DTD/svg11.dtd">
<svg version="1.1" id="Layer_5" xmlns="http://www.w3.org/2000/svg" xmlns:xlink="http://www.w3.org/1999/xlink" x="0px" y="0px"
	 width="56.773px" height="56.772px" viewBox="0 0 56.773 56.772" enable-background="new 0 0 56.773 56.772" xml:space="preserve">
<g>
	<g>
		<path d="M2,56.772c-0.522,0-1.033-0.205-1.414-0.586c-0.521-0.521-0.713-1.285-0.501-1.99L7.389,29.93
			c0.095-0.316,0.268-0.604,0.501-0.838L36.396,0.586C36.771,0.211,37.28,0,37.811,0l0,0c0.53,0,1.039,0.211,1.414,0.586
			l16.963,16.963c0.375,0.375,0.586,0.884,0.586,1.414s-0.211,1.039-0.586,1.414L27.681,48.883
			c-0.233,0.233-0.521,0.406-0.838,0.501L2.576,56.688C2.387,56.745,2.192,56.772,2,56.772z M11.074,31.564l-6.086,20.22
			l20.22-6.086l26.737-26.735L37.811,4.828L11.074,31.564z"/>
	</g>
	<g>
		<rect x="5.791" y="36.988" transform="matrix(0.7071 0.7071 -0.7071 0.7071 32.7773 -1.1569)" width="23.989" height="4"/>
	</g>
</g>
</svg>
