<?xml version="1.0" encoding="utf-8"?>
<!-- Generator: Adobe Illustrator 16.0.0, SVG Export Plug-In . SVG Version: 6.00 Build 0)  -->
<!DOCTYPE svg PUBLIC "-//W3C//DTD SVG 1.1//EN" "http://www.w3.org/Graphics/SVG/1.1/DTD/svg11.dtd">
<svg version="1.1" id="Layer_1" xmlns="http://www.w3.org/2000/svg" xmlns:xlink="http://www.w3.org/1999/xlink" x="0px" y="0px"
	 width="68.363px" height="11.76px" viewBox="0 0 68.363 11.76" enable-background="new 0 0 68.363 11.76" xml:space="preserve">
<path fill="#D6D6D6" d="M6.182,0l2.063,3.66l4.119,0.831L9.52,7.585l0.482,4.174l-3.82-1.748l-3.82,1.748l0.482-4.174L0,4.49
	l4.119-0.829L6.182,0z M20.182,0l2.063,3.66l4.119,0.831L23.52,7.585l0.482,4.174l-3.82-1.748l-3.82,1.748l0.482-4.174L14,4.492
	l4.119-0.83L20.182,0z M34.182,0l2.062,3.66l4.119,0.831L37.52,7.585l0.482,4.174l-3.82-1.748l-3.82,1.748l0.482-4.174L28,4.492
	l4.119-0.83L34.182,0z M48.182,0l2.063,3.66l4.119,0.831L51.52,7.585l0.482,4.174l-3.82-1.748l-3.82,1.748l0.482-4.174L42,4.492
	l4.119-0.83L48.182,0z M62.182,0l2.063,3.66l4.119,0.831L65.52,7.585l0.482,4.174l-3.82-1.748l-3.82,1.748l0.482-4.174L56,4.492
	l4.119-0.83L62.182,0z"/>
</svg>
