<?xml version="1.0" encoding="utf-8"?>
<!-- Generator: Adobe Illustrator 16.0.0, SVG Export Plug-In . SVG Version: 6.00 Build 0)  -->
<!DOCTYPE svg PUBLIC "-//W3C//DTD SVG 1.1//EN" "http://www.w3.org/Graphics/SVG/1.1/DTD/svg11.dtd" [
	<!ENTITY ns_extend "http://ns.adobe.com/Extensibility/1.0/">
	<!ENTITY ns_ai "http://ns.adobe.com/AdobeIllustrator/10.0/">
	<!ENTITY ns_graphs "http://ns.adobe.com/Graphs/1.0/">
	<!ENTITY ns_vars "http://ns.adobe.com/Variables/1.0/">
	<!ENTITY ns_imrep "http://ns.adobe.com/ImageReplacement/1.0/">
	<!ENTITY ns_sfw "http://ns.adobe.com/SaveForWeb/1.0/">
	<!ENTITY ns_custom "http://ns.adobe.com/GenericCustomNamespace/1.0/">
	<!ENTITY ns_adobe_xpath "http://ns.adobe.com/XPath/1.0/">
]>
<svg version="1.1" id="Layer_1" xmlns:x="&ns_extend;" xmlns:i="&ns_ai;" xmlns:graph="&ns_graphs;"
	 xmlns="http://www.w3.org/2000/svg" xmlns:xlink="http://www.w3.org/1999/xlink" x="0px" y="0px" width="70.875px"
	 height="71.125px" viewBox="0 0 70.875 71.125" enable-background="new 0 0 70.875 71.125" xml:space="preserve">
<metadata>
	<sfw  xmlns="&ns_sfw;">
		<slices></slices>
		<sliceSourceBounds  width="70.061" height="70.428" y="-55.734" x="-14.787" bottomLeftOrigin="true"></sliceSourceBounds>
	</sfw>
</metadata>
<path fill="none" stroke="#040000" stroke-width="5" stroke-linecap="round" stroke-linejoin="round" stroke-miterlimit="10" d="
	M25.141,29.558H7.348c-2.457,0-4.448-1.991-4.448-4.448V7.317c0-2.457,1.991-4.448,4.448-4.448h17.792
	c2.457,0,4.449,1.991,4.449,4.448v17.792C29.589,27.566,27.597,29.558,25.141,29.558z"/>
<path fill="none" stroke="#040000" stroke-width="5" stroke-linecap="round" stroke-linejoin="round" stroke-miterlimit="10" d="
	M63.513,29.558H45.721c-2.457,0-4.449-1.991-4.449-4.448V7.317c0-2.457,1.992-4.448,4.449-4.448h17.792
	c2.456,0,4.448,1.991,4.448,4.448v17.792C67.961,27.566,65.969,29.558,63.513,29.558z"/>
<path fill="none" stroke="#040000" stroke-width="5" stroke-linecap="round" stroke-linejoin="round" stroke-miterlimit="10" d="
	M25.141,68.297H7.348c-2.457,0-4.448-1.992-4.448-4.448V46.056c0-2.456,1.991-4.448,4.448-4.448h17.792
	c2.457,0,4.449,1.992,4.449,4.448v17.793C29.589,66.305,27.597,68.297,25.141,68.297z"/>
<path fill="none" stroke="#040000" stroke-width="5" stroke-linecap="round" stroke-linejoin="round" stroke-miterlimit="10" d="
	M63.513,68.297H45.721c-2.457,0-4.449-1.992-4.449-4.448V46.056c0-2.456,1.992-4.448,4.449-4.448h17.792
	c2.456,0,4.448,1.992,4.448,4.448v17.793C67.961,66.305,65.969,68.297,63.513,68.297z"/>
</svg>
