<?xml version="1.0" encoding="utf-8"?>
<!-- Generator: Adobe Illustrator 16.0.0, SVG Export Plug-In . SVG Version: 6.00 Build 0)  -->
<!DOCTYPE svg PUBLIC "-//W3C//DTD SVG 1.1//EN" "http://www.w3.org/Graphics/SVG/1.1/DTD/svg11.dtd">
<svg version="1.1" id="Layer_1" xmlns="http://www.w3.org/2000/svg" xmlns:xlink="http://www.w3.org/1999/xlink" x="0px" y="0px"
	 width="68.363px" height="11.758px" viewBox="0 0 68.363 11.758" enable-background="new 0 0 68.363 11.758" xml:space="preserve">
<polygon fill="#F94830" points="6.182,0 8.245,3.66 12.364,4.491 9.52,7.584 10.003,11.758 6.182,10.01 2.362,11.758 2.844,7.584 
	0,4.491 4.119,3.66 "/>
<polygon fill="#F94830" points="20.182,0 22.245,3.66 26.364,4.491 23.52,7.584 24.003,11.758 20.182,10.01 16.362,11.758 
	16.844,7.584 14,4.491 18.119,3.661 "/>
<polygon fill="#F94830" points="34.182,0 36.244,3.66 40.364,4.491 37.52,7.584 38.002,11.758 34.182,10.01 30.363,11.758 
	30.844,7.584 28,4.491 32.12,3.661 "/>
<polygon fill="#E2E2E2" points="48.182,0 50.244,3.66 54.364,4.491 51.52,7.584 52.002,11.758 48.182,10.01 44.362,11.758 
	44.844,7.584 42,4.491 46.119,3.661 "/>
<polygon fill="#E2E2E2" points="62.182,0 64.244,3.66 68.364,4.491 65.52,7.584 66.002,11.758 62.182,10.01 58.362,11.758 
	58.844,7.584 56,4.491 60.119,3.661 "/>
</svg>
