<?xml version="1.0" encoding="utf-8"?>
<!-- Generator: Adobe Illustrator 16.0.0, SVG Export Plug-In . SVG Version: 6.00 Build 0)  -->
<!DOCTYPE svg PUBLIC "-//W3C//DTD SVG 1.1//EN" "http://www.w3.org/Graphics/SVG/1.1/DTD/svg11.dtd" [
	<!ENTITY ns_extend "http://ns.adobe.com/Extensibility/1.0/">
	<!ENTITY ns_ai "http://ns.adobe.com/AdobeIllustrator/10.0/">
	<!ENTITY ns_graphs "http://ns.adobe.com/Graphs/1.0/">
	<!ENTITY ns_vars "http://ns.adobe.com/Variables/1.0/">
	<!ENTITY ns_imrep "http://ns.adobe.com/ImageReplacement/1.0/">
	<!ENTITY ns_sfw "http://ns.adobe.com/SaveForWeb/1.0/">
	<!ENTITY ns_custom "http://ns.adobe.com/GenericCustomNamespace/1.0/">
	<!ENTITY ns_adobe_xpath "http://ns.adobe.com/XPath/1.0/">
]>
<svg version="1.1" id="Layer_1" xmlns:x="&ns_extend;" xmlns:i="&ns_ai;" xmlns:graph="&ns_graphs;"
	 xmlns="http://www.w3.org/2000/svg" xmlns:xlink="http://www.w3.org/1999/xlink" x="0px" y="0px" width="70.875px"
	 height="71.125px" viewBox="0 0 70.875 71.125" enable-background="new 0 0 70.875 71.125" xml:space="preserve">
<metadata>
	<sfw  xmlns="&ns_sfw;">
		<slices></slices>
		<sliceSourceBounds  width="70.061" height="70.428" y="-55.734" x="-14.787" bottomLeftOrigin="true"></sliceSourceBounds>
	</sfw>
</metadata>
<g>
	<path fill="#040000" d="M25.141,32.058H7.348c-3.831,0-6.948-3.117-6.948-6.948V7.317c0-3.831,3.117-6.948,6.948-6.948h17.792
		c3.832,0,6.949,3.117,6.949,6.948v17.792C32.089,28.94,28.972,32.058,25.141,32.058z M7.348,5.369C6.274,5.369,5.4,6.243,5.4,7.317
		v17.792c0,1.074,0.874,1.948,1.948,1.948h17.792c1.075,0,1.949-0.874,1.949-1.948V7.317c0-1.074-0.874-1.948-1.949-1.948H7.348z"/>
</g>
<g>
	<path fill="#040000" d="M63.513,32.058H45.721c-3.832,0-6.949-3.117-6.949-6.948V7.317c0-3.831,3.117-6.948,6.949-6.948h17.792
		c3.831,0,6.948,3.117,6.948,6.948v17.792C70.461,28.94,67.344,32.058,63.513,32.058z M45.721,5.369
		c-1.075,0-1.949,0.874-1.949,1.948v17.792c0,1.074,0.874,1.948,1.949,1.948h17.792c1.074,0,1.948-0.874,1.948-1.948V7.317
		c0-1.074-0.874-1.948-1.948-1.948H45.721z"/>
</g>
<g>
	<path fill="#040000" d="M25.141,70.797H7.348c-3.831,0-6.948-3.117-6.948-6.948V46.056c0-3.831,3.117-6.948,6.948-6.948h17.792
		c3.832,0,6.949,3.117,6.949,6.948v17.793C32.089,67.68,28.972,70.797,25.141,70.797z M7.348,44.107
		c-1.074,0-1.948,0.874-1.948,1.948v17.793c0,1.074,0.874,1.948,1.948,1.948h17.792c1.075,0,1.949-0.874,1.949-1.948V46.056
		c0-1.074-0.874-1.948-1.949-1.948H7.348z"/>
</g>
<g>
	<path fill="#040000" d="M63.513,70.797H45.721c-3.832,0-6.949-3.117-6.949-6.948V46.056c0-3.831,3.117-6.948,6.949-6.948h17.792
		c3.831,0,6.948,3.117,6.948,6.948v17.793C70.461,67.68,67.344,70.797,63.513,70.797z M45.721,44.107
		c-1.075,0-1.949,0.874-1.949,1.948v17.793c0,1.074,0.874,1.948,1.949,1.948h17.792c1.074,0,1.948-0.874,1.948-1.948V46.056
		c0-1.074-0.874-1.948-1.948-1.948H45.721z"/>
</g>
</svg>
