<?xml version="1.0" encoding="utf-8"?>
<!-- Generator: Adobe Illustrator 16.0.0, SVG Export Plug-In . SVG Version: 6.00 Build 0)  -->
<!DOCTYPE svg PUBLIC "-//W3C//DTD SVG 1.1//EN" "http://www.w3.org/Graphics/SVG/1.1/DTD/svg11.dtd" [
	<!ENTITY ns_extend "http://ns.adobe.com/Extensibility/1.0/">
	<!ENTITY ns_ai "http://ns.adobe.com/AdobeIllustrator/10.0/">
	<!ENTITY ns_graphs "http://ns.adobe.com/Graphs/1.0/">
	<!ENTITY ns_vars "http://ns.adobe.com/Variables/1.0/">
	<!ENTITY ns_imrep "http://ns.adobe.com/ImageReplacement/1.0/">
	<!ENTITY ns_sfw "http://ns.adobe.com/SaveForWeb/1.0/">
	<!ENTITY ns_custom "http://ns.adobe.com/GenericCustomNamespace/1.0/">
	<!ENTITY ns_adobe_xpath "http://ns.adobe.com/XPath/1.0/">
]>
<svg version="1.1" id="Layer_1" xmlns:x="&ns_extend;" xmlns:i="&ns_ai;" xmlns:graph="&ns_graphs;"
	 xmlns="http://www.w3.org/2000/svg" xmlns:xlink="http://www.w3.org/1999/xlink" x="0px" y="0px" width="71.688px"
	 height="71.188px" viewBox="0 0 71.688 71.188" enable-background="new 0 0 71.688 71.188" xml:space="preserve">
<metadata>
	<sfw  xmlns="&ns_sfw;">
		<slices></slices>
		<sliceSourceBounds  width="70.877" height="70.647" y="-55.885" x="-14.85" bottomLeftOrigin="true"></sliceSourceBounds>
	</sfw>
</metadata>
<g>
	<path fill="#040000" d="M68.777,10.988h-44c-1.381,0-2.5-1.119-2.5-2.5s1.119-2.5,2.5-2.5h44c1.381,0,2.5,1.119,2.5,2.5
		S70.158,10.988,68.777,10.988z"/>
</g>
<g>
	<path fill="#040000" d="M68.777,38.487h-44c-1.381,0-2.5-1.119-2.5-2.5s1.119-2.5,2.5-2.5h44c1.381,0,2.5,1.119,2.5,2.5
		S70.158,38.487,68.777,38.487z"/>
</g>
<g>
	<path fill="#040000" d="M68.777,65.986h-44c-1.381,0-2.5-1.119-2.5-2.5s1.119-2.5,2.5-2.5h44c1.381,0,2.5,1.119,2.5,2.5
		S70.158,65.986,68.777,65.986z"/>
</g>
<g>
	<path fill="#040000" d="M7.9,15.407c-4.136,0-7.5-3.375-7.5-7.522s3.364-7.522,7.5-7.522s7.5,3.375,7.5,7.522
		S12.036,15.407,7.9,15.407z M7.9,5.362c-1.378,0-2.5,1.131-2.5,2.522s1.122,2.522,2.5,2.522s2.5-1.131,2.5-2.522
		S9.279,5.362,7.9,5.362z"/>
</g>
<g>
	<path fill="#040000" d="M7.9,43.208c-4.136,0-7.5-3.375-7.5-7.522c0-4.148,3.364-7.522,7.5-7.522s7.5,3.375,7.5,7.522
		C15.4,39.833,12.036,43.208,7.9,43.208z M7.9,33.163c-1.378,0-2.5,1.131-2.5,2.522c0,1.391,1.122,2.522,2.5,2.522
		s2.5-1.132,2.5-2.522C10.4,34.294,9.279,33.163,7.9,33.163z"/>
</g>
<g>
	<path fill="#040000" d="M7.9,71.01c-4.136,0-7.5-3.375-7.5-7.523c0-4.147,3.364-7.521,7.5-7.521s7.5,3.374,7.5,7.521
		C15.4,67.635,12.036,71.01,7.9,71.01z M7.9,60.965c-1.378,0-2.5,1.131-2.5,2.521c0,1.392,1.122,2.523,2.5,2.523
		s2.5-1.132,2.5-2.523C10.4,62.096,9.279,60.965,7.9,60.965z"/>
</g>
</svg>
