<?xml version="1.0" encoding="utf-8"?>
<!-- Generator: Adobe Illustrator 16.0.0, SVG Export Plug-In . SVG Version: 6.00 Build 0)  -->
<!DOCTYPE svg PUBLIC "-//W3C//DTD SVG 1.1//EN" "http://www.w3.org/Graphics/SVG/1.1/DTD/svg11.dtd" [
	<!ENTITY ns_extend "http://ns.adobe.com/Extensibility/1.0/">
	<!ENTITY ns_ai "http://ns.adobe.com/AdobeIllustrator/10.0/">
	<!ENTITY ns_graphs "http://ns.adobe.com/Graphs/1.0/">
	<!ENTITY ns_vars "http://ns.adobe.com/Variables/1.0/">
	<!ENTITY ns_imrep "http://ns.adobe.com/ImageReplacement/1.0/">
	<!ENTITY ns_sfw "http://ns.adobe.com/SaveForWeb/1.0/">
	<!ENTITY ns_custom "http://ns.adobe.com/GenericCustomNamespace/1.0/">
	<!ENTITY ns_adobe_xpath "http://ns.adobe.com/XPath/1.0/">
]>
<svg version="1.1" id="Layer_1" xmlns:x="&ns_extend;" xmlns:i="&ns_ai;" xmlns:graph="&ns_graphs;"
	 xmlns="http://www.w3.org/2000/svg" xmlns:xlink="http://www.w3.org/1999/xlink" x="0px" y="0px" width="34.466px"
	 height="28.79px" viewBox="0 0 34.466 28.79" enable-background="new 0 0 34.466 28.79" xml:space="preserve">
<metadata>
	<sfw  xmlns="&ns_sfw;">
		<slices></slices>
		<sliceSourceBounds  height="28.79" width="34.466" x="3.595" y="-35.207" bottomLeftOrigin="true"></sliceSourceBounds>
	</sfw>
</metadata>
<g>
	<path fill="#262626" d="M31.176,28.79H3.291C1.477,28.79,0,27.313,0,25.499V7.104C0,5.29,1.477,3.813,3.291,3.813h5.98
		c0.625,0,1.449-0.543,1.694-1.118C11.632,1.134,13.348,0,14.982,0h4.502c1.635,0,3.351,1.134,3.992,2.637
		c0.271,0.634,1.093,1.176,1.718,1.176h5.981c1.814,0,3.29,1.477,3.29,3.291v18.395C34.466,27.313,32.99,28.79,31.176,28.79z
		 M3.291,6.313C2.855,6.313,2.5,6.668,2.5,7.104v18.395c0,0.437,0.355,0.791,0.791,0.791h27.885c0.436,0,0.79-0.354,0.79-0.791
		V7.104c0-0.436-0.354-0.791-0.79-0.791h-5.981c-1.636,0-3.353-1.133-3.992-2.636C20.932,3.043,20.109,2.5,19.484,2.5h-4.502
		c-0.625,0-1.448,0.543-1.693,1.119c-0.667,1.562-2.384,2.695-4.018,2.695H3.291z"/>
</g>
<g>
	<path fill="#040000" d="M17.233,23.468c-4.145,0-7.518-3.372-7.518-7.518c0-4.145,3.373-7.518,7.518-7.518
		c4.146,0,7.518,3.373,7.518,7.518C24.751,20.096,21.379,23.468,17.233,23.468z M17.233,10.933c-2.767,0-5.018,2.251-5.018,5.018
		s2.251,5.018,5.018,5.018s5.018-2.251,5.018-5.018S20,10.933,17.233,10.933z"/>
</g>
</svg>
