<?xml version="1.0" encoding="utf-8"?>
<!-- Generator: Adobe Illustrator 16.0.0, SVG Export Plug-In . SVG Version: 6.00 Build 0)  -->
<!DOCTYPE svg PUBLIC "-//W3C//DTD SVG 1.1//EN" "http://www.w3.org/Graphics/SVG/1.1/DTD/svg11.dtd" [
	<!ENTITY ns_extend "http://ns.adobe.com/Extensibility/1.0/">
	<!ENTITY ns_ai "http://ns.adobe.com/AdobeIllustrator/10.0/">
	<!ENTITY ns_graphs "http://ns.adobe.com/Graphs/1.0/">
	<!ENTITY ns_vars "http://ns.adobe.com/Variables/1.0/">
	<!ENTITY ns_imrep "http://ns.adobe.com/ImageReplacement/1.0/">
	<!ENTITY ns_sfw "http://ns.adobe.com/SaveForWeb/1.0/">
	<!ENTITY ns_custom "http://ns.adobe.com/GenericCustomNamespace/1.0/">
	<!ENTITY ns_adobe_xpath "http://ns.adobe.com/XPath/1.0/">
]>
<svg version="1.1" id="Layer_1" xmlns:x="&ns_extend;" xmlns:i="&ns_ai;" xmlns:graph="&ns_graphs;"
	 xmlns="http://www.w3.org/2000/svg" xmlns:xlink="http://www.w3.org/1999/xlink" x="0px" y="0px" width="40.131px"
	 height="32.068px" viewBox="0 0 40.131 32.068" enable-background="new 0 0 40.131 32.068" xml:space="preserve">
<metadata>
	<sfw  xmlns="&ns_sfw;">
		<slices></slices>
		<sliceSourceBounds  height="32.679" width="40.131" x="558.521" y="-128.512" bottomLeftOrigin="true"></sliceSourceBounds>
	</sfw>
</metadata>
<g>
	<g>
		<path fill="#FFFFFF" d="M7.028,27.741h-3.59C1.543,27.741,0,26.198,0,24.303v-3.785c0-1.526,0.777-3.523,1.809-4.646l5.599-6.101
			c1.057-1.15,3.029-2.018,4.589-2.018h3.292c1.896,0,3.438,1.543,3.438,3.438c0,0.69-0.56,1.25-1.25,1.25s-1.25-0.56-1.25-1.25
			c0-0.518-0.421-0.938-0.938-0.938h-3.292c-0.857,0-2.167,0.576-2.747,1.208L3.65,17.562c-0.603,0.656-1.15,2.064-1.15,2.956v3.785
			c0,0.518,0.421,0.938,0.938,0.938h3.59c0.69,0,1.25,0.56,1.25,1.25S7.719,27.741,7.028,27.741z"/>
	</g>
	<g>
		<path fill="none" stroke="#FFFFFF" stroke-width="2.5" stroke-linecap="round" stroke-linejoin="round" d="M20.683,32.679"/>
	</g>
	<g>
		<path fill="#FFFFFF" d="M36.693,27.922h-3.411c-0.69,0-1.25-0.56-1.25-1.25s0.56-1.25,1.25-1.25h3.411
			c0.508,0,0.938-0.43,0.938-0.938V3.438c0-0.509-0.43-0.938-0.938-0.938H19.664c-0.508,0-0.938,0.43-0.938,0.938V26.25
			c0,0.69-0.56,1.25-1.25,1.25s-1.25-0.56-1.25-1.25V3.438C16.227,1.543,17.769,0,19.664,0h17.029c1.896,0,3.438,1.543,3.438,3.438
			v21.046C40.131,26.38,38.589,27.922,36.693,27.922z"/>
	</g>
	<g>
		<path fill="#FFFFFF" d="M23.928,27.922h-8.162c-0.69,0-1.25-0.56-1.25-1.25s0.56-1.25,1.25-1.25h8.162c0.69,0,1.25,0.56,1.25,1.25
			S24.618,27.922,23.928,27.922z"/>
	</g>
	<g>
		<path fill="#FFFFFF" d="M10.994,32.068c-2.876,0-5.216-2.34-5.216-5.217c0-0.135,0.014-0.266,0.031-0.396
			c0.257-2.782,2.481-4.82,5.185-4.82c2.704,0,4.929,2.039,5.175,4.742c0.027,0.211,0.042,0.34,0.042,0.474
			C16.211,29.729,13.871,32.068,10.994,32.068z M10.994,24.136c-1.402,0-2.557,1.062-2.685,2.47l-0.022,0.186
			c-0.009,1.559,1.21,2.777,2.707,2.777c1.498,0,2.717-1.219,2.717-2.717c-0.018-0.117-0.027-0.188-0.033-0.26
			C13.551,25.197,12.396,24.136,10.994,24.136z"/>
	</g>
	<g>
		<path fill="#FFFFFF" d="M28.604,32.068c-2.876,0-5.216-2.34-5.216-5.217c0-0.059,0.013-0.213,0.021-0.271
			c0.124-2.758,2.407-4.945,5.194-4.945s5.07,2.188,5.197,4.979c0.01,0.055,0.019,0.145,0.019,0.236
			C33.82,29.729,31.48,32.068,28.604,32.068z M28.604,24.136c-1.447,0-2.634,1.139-2.699,2.593c-0.002,0.039-0.015,0.162-0.02,0.2
			c0.003,1.421,1.222,2.64,2.719,2.64s2.716-1.219,2.716-2.717c-0.005-0.036-0.015-0.083-0.017-0.119
			C31.238,25.274,30.052,24.136,28.604,24.136z"/>
	</g>
	<g>
		<path fill="#FFFFFF" d="M8.008,19.878H2.49c-0.69,0-1.25-0.56-1.25-1.25s0.56-1.25,1.25-1.25h5.518c0.69,0,1.25,0.56,1.25,1.25
			S8.698,19.878,8.008,19.878z"/>
	</g>
</g>
</svg>
