<?xml version="1.0" encoding="utf-8"?>
<!-- Generator: Adobe Illustrator 16.0.0, SVG Export Plug-In . SVG Version: 6.00 Build 0)  -->
<!DOCTYPE svg PUBLIC "-//W3C//DTD SVG 1.1//EN" "http://www.w3.org/Graphics/SVG/1.1/DTD/svg11.dtd">
<svg version="1.1" id="Layer_1" xmlns="http://www.w3.org/2000/svg" xmlns:xlink="http://www.w3.org/1999/xlink" x="0px" y="0px"
	 width="20px" height="20px" viewBox="0 0 20 20" style="enable-background:new 0 0 20 20;" xml:space="preserve">
<g>
	<path style="fill:#FF002E;" d="M15.3,7c-0.2,0-1.3,0.2-1.7,0.3c-0.4,0.1-4,3-4.3,3.6c0,0.2,0,2.7,0,2.7l2.1,0.1l-0.1,0.7
		c-0.3,0-2.2,0-3.4,0c-0.6,0-2.5,0.1-3.1,0L4.9,14c0.4,0,1,0,1.4-0.1c0.4-0.1,0.6-0.3,0.6-0.6v-2.1c-0.1-0.4-3.2-4.2-4-4.8
		C2.7,6.2,1.2,6,0.8,5.9l0.1-0.6h7L7.7,5.9C7.4,5.9,6,6,5.6,6.1c1,1.5,2.6,3.4,3.1,4.1c0.3-0.4,3-2.3,3-2.9C11.3,7.3,10,7.1,9.8,7.1
		L9.7,6.4h6L15.3,7L15.3,7z"/>
	<polygon style="fill:#FF002E;" points="14.3,14.5 13.5,14.3 14.1,13 14.8,13.3 15.6,13.5 15,14.7 	"/>
	<polygon style="fill:#FF002E;" points="15.9,12.5 14.8,12.1 16.7,6.3 19.2,7.1 18.7,7.9 	"/>
</g>
</svg>
