<?xml version="1.0" encoding="utf-8"?>
<!-- Generator: Adobe Illustrator 16.0.0, SVG Export Plug-In . SVG Version: 6.00 Build 0)  -->
<!DOCTYPE svg PUBLIC "-//W3C//DTD SVG 1.1//EN" "http://www.w3.org/Graphics/SVG/1.1/DTD/svg11.dtd">
<svg version="1.1" id="Layer_1" xmlns="http://www.w3.org/2000/svg" xmlns:xlink="http://www.w3.org/1999/xlink" x="0px" y="0px"
	 width="20px" height="20px" viewBox="0 0 20 20" style="enable-background:new 0 0 20 20;" xml:space="preserve">
<path d="M15.2,10.6c0-2.4,2-3.6,2.1-3.7C16.2,5.2,14.4,5,13.8,5c-1.5-0.2-2.9,0.9-3.7,0.9C9.3,5.9,8.2,5,6.9,5.1
	c-1.6,0-3.1,1-3.9,2.4c-1.7,2.9-0.4,7.3,1.2,9.6c0.8,1.2,1.8,2.5,3,2.4c1.2-0.1,1.7-0.8,3.1-0.8c1.5,0,1.9,0.8,3.2,0.8
	c1.3,0,2.1-1.2,2.9-2.4c0.9-1.3,1.3-2.7,1.3-2.7C17.8,14.5,15.3,13.5,15.2,10.6L15.2,10.6z M12.8,3.5c0.7-0.8,1.1-1.9,1-3.1
	c-0.9,0-2.1,0.7-2.8,1.5c-0.6,0.7-1.1,1.9-1,3C11.1,4.9,12.1,4.3,12.8,3.5L12.8,3.5z"/>
</svg>
