<?xml version="1.0" encoding="utf-8"?>
<!-- Generator: Adobe Illustrator 16.0.0, SVG Export Plug-In . SVG Version: 6.00 Build 0)  -->
<!DOCTYPE svg PUBLIC "-//W3C//DTD SVG 1.1//EN" "http://www.w3.org/Graphics/SVG/1.1/DTD/svg11.dtd">
<svg version="1.1" id="Layer_1" xmlns="http://www.w3.org/2000/svg" xmlns:xlink="http://www.w3.org/1999/xlink" x="0px" y="0px"
	 width="31px" height="35.008px" viewBox="0 0 31 35.008" enable-background="new 0 0 31 35.008" xml:space="preserve">
<g>
	<g>
		<path d="M29.75,35.031H1.25c-0.69,0-1.25-0.561-1.25-1.25V14.092c-0.001-0.896,0.387-1.75,1.067-2.339L14.104,0.479
			c0.773-0.67,2.018-0.671,2.793,0.001l13.035,11.27c0.682,0.592,1.069,1.445,1.067,2.343v19.688
			C31,34.471,30.44,35.031,29.75,35.031z M2.5,32.531h26V14.092c0-0.174-0.074-0.337-0.205-0.451L15.5,2.578L2.704,13.642
			C2.575,13.754,2.5,13.917,2.5,14.089V32.531z"/>
	</g>
</g>
</svg>
