<?xml version="1.0" encoding="utf-8"?>
<!-- Generator: Adobe Illustrator 16.0.0, SVG Export Plug-In . SVG Version: 6.00 Build 0)  -->
<!DOCTYPE svg PUBLIC "-//W3C//DTD SVG 1.1//EN" "http://www.w3.org/Graphics/SVG/1.1/DTD/svg11.dtd">
<svg version="1.1" id="Layer_1" xmlns="http://www.w3.org/2000/svg" xmlns:xlink="http://www.w3.org/1999/xlink" x="0px" y="0px"
	 width="59.7px" height="55.2px" viewBox="0 0 59.7 55.2" style="enable-background:new 0 0 59.7 55.2;" xml:space="preserve">
<g>
	
		<circle style="fill:none;stroke:#000000;stroke-width:3.8;stroke-linecap:round;stroke-linejoin:round;stroke-miterlimit:10;" cx="29.8" cy="31.4" r="21.3"/>
	
		<polyline style="fill:none;stroke:#000000;stroke-width:3.8;stroke-linecap:round;stroke-linejoin:round;stroke-miterlimit:10;" points="
		30.4,20.7 30.4,31.3 39.3,31.3 	"/>
	
		<line style="fill:none;stroke:#000000;stroke-width:3.8;stroke-linecap:round;stroke-linejoin:round;stroke-miterlimit:10;" x1="29.8" y1="8.7" x2="29.8" y2="2.5"/>
	
		<line style="fill:none;stroke:#000000;stroke-width:3.8;stroke-linecap:round;stroke-linejoin:round;stroke-miterlimit:10;" x1="25.1" y1="2.5" x2="34.5" y2="2.5"/>
	
		<line style="fill:none;stroke:#000000;stroke-width:3.8;stroke-linecap:round;stroke-linejoin:round;stroke-miterlimit:10;" x1="11" y1="13.4" x2="13.3" y2="16"/>
	<path style="fill:none;stroke:#000000;stroke-width:3.8;stroke-linecap:round;stroke-linejoin:round;stroke-miterlimit:10;" d="
		M15.9,8.6l-9.8,9l-2.3-2.4c-1.9-2-1.7-5.2,0.3-7l2.4-2.3c2-1.9,5.2-1.7,7,0.3L15.9,8.6z"/>
	
		<line style="fill:none;stroke:#000000;stroke-width:3.8;stroke-linecap:round;stroke-linejoin:round;stroke-miterlimit:10;" x1="48.7" y1="13.4" x2="46.3" y2="16"/>
	<path style="fill:none;stroke:#000000;stroke-width:3.8;stroke-linecap:round;stroke-linejoin:round;stroke-miterlimit:10;" d="
		M43.8,8.6l9.8,9l2.3-2.4c1.9-2,1.7-5.2-0.3-7l-2.4-2.3c-2-1.9-5.2-1.7-7,0.3L43.8,8.6z"/>
</g>
</svg>
