<?xml version="1.0" encoding="utf-8"?>
<!-- Generator: Adobe Illustrator 16.0.0, SVG Export Plug-In . SVG Version: 6.00 Build 0)  -->
<!DOCTYPE svg PUBLIC "-//W3C//DTD SVG 1.1//EN" "http://www.w3.org/Graphics/SVG/1.1/DTD/svg11.dtd">
<svg version="1.1" id="Layer_1" xmlns="http://www.w3.org/2000/svg" xmlns:xlink="http://www.w3.org/1999/xlink" x="0px" y="0px"
	 width="45px" height="45px" viewBox="0 0 45 45" enable-background="new 0 0 45 45" xml:space="preserve">
<g>
	<g>
		<path fill="#FFFFFF" d="M33.352,29.6H16.983l-8.3-24H0.552v-3H10.82l2.179,6.3h27.052c1.527,0,2.855,0.627,3.645,1.721
			c0.795,1.104,0.971,2.582,0.479,4.054l-4.133,10.188C39.174,27.48,36.219,29.6,33.352,29.6z M19.12,26.6h14.231
			c1.572,0,3.385-1.297,3.877-2.775l4.133-10.188c0.152-0.465,0.129-0.945-0.1-1.262c-0.221-0.306-0.65-0.475-1.211-0.475H14.037
			L19.12,26.6z"/>
	</g>
	<g>
		<g>
			<path fill="#FFFFFF" d="M19.652,42.4c-2.922,0-5.3-2.379-5.3-5.301s2.377-5.301,5.3-5.301s5.299,2.379,5.299,5.301
				S22.574,42.4,19.652,42.4z M19.652,34.799c-1.268,0-2.3,1.031-2.3,2.301c0,1.268,1.032,2.301,2.3,2.301
				c1.269,0,2.3-1.033,2.3-2.301C21.952,35.83,20.92,34.799,19.652,34.799z"/>
		</g>
		<g>
			<path fill="#FFFFFF" d="M34.551,42.4c-2.922,0-5.299-2.379-5.299-5.301s2.377-5.301,5.299-5.301s5.301,2.379,5.301,5.301
				S37.473,42.4,34.551,42.4z M34.551,34.799c-1.268,0-2.299,1.031-2.299,2.301c0,1.268,1.031,2.301,2.299,2.301
				c1.27,0,2.301-1.033,2.301-2.301C36.852,35.83,35.82,34.799,34.551,34.799z"/>
		</g>
	</g>
</g>
</svg>
