<?xml version="1.0" encoding="utf-8"?>
<!-- Generator: Adobe Illustrator 16.0.0, SVG Export Plug-In . SVG Version: 6.00 Build 0)  -->
<!DOCTYPE svg PUBLIC "-//W3C//DTD SVG 1.1//EN" "http://www.w3.org/Graphics/SVG/1.1/DTD/svg11.dtd">
<svg version="1.1" id="Layer_1" xmlns="http://www.w3.org/2000/svg" xmlns:xlink="http://www.w3.org/1999/xlink" x="0px" y="0px"
	 width="20px" height="20px" viewBox="0 0 20 20" style="enable-background:new 0 0 20 20;" xml:space="preserve">
<g>
	<path style="fill:#4285F4;" d="M18.9,10.2c0-0.6,0-1.2-0.2-1.9h-8.6v3.5H15c-0.2,1.1-0.9,2.1-1.8,2.8v2.3h2.9
		C18,15.3,18.9,13,18.9,10.2L18.9,10.2z"/>
	<path style="fill:#34A853;" d="M10.2,19.1c2.5,0,4.5-0.8,6.1-2.2l-2.9-2.3c-0.8,0.6-1.9,0.9-3.1,0.9c-2.4,0-4.4-1.6-5.1-3.8H2V14
		C3.6,17.2,6.7,19.1,10.2,19.1z"/>
	<path style="fill:#FBBC04;" d="M5.1,11.7c-0.4-1.1-0.4-2.4,0-3.5V5.9H2c-1.3,2.6-1.3,5.6,0,8.2L5.1,11.7z"/>
	<path style="fill:#EA4335;" d="M10.2,4.5c1.3,0,2.6,0.5,3.5,1.4l2.6-2.6c-1.6-1.6-3.8-2.4-6.1-2.4c-3.5,0-6.6,1.9-8.2,5l3,2.4
		C5.8,6.1,7.8,4.5,10.2,4.5z"/>
</g>
</svg>
