<?xml version="1.0" encoding="utf-8"?>
<!-- Generator: Adobe Illustrator 16.0.0, SVG Export Plug-In . SVG Version: 6.00 Build 0)  -->
<!DOCTYPE svg PUBLIC "-//W3C//DTD SVG 1.1//EN" "http://www.w3.org/Graphics/SVG/1.1/DTD/svg11.dtd">
<svg version="1.1" id="Layer_1" xmlns="http://www.w3.org/2000/svg" xmlns:xlink="http://www.w3.org/1999/xlink" x="0px" y="0px"
	 width="25.41px" height="25.41px" viewBox="0 0 25.41 25.41" enable-background="new 0 0 25.41 25.41" xml:space="preserve">
<g>
	<path fill="#FFFFFF" d="M12.705,25.41C5.7,25.41,0,19.71,0,12.705S5.7,0,12.705,0S25.41,5.7,25.41,12.705S19.71,25.41,12.705,25.41
		z M12.705,2C6.802,2,2,6.802,2,12.705S6.802,23.41,12.705,23.41S23.41,18.608,23.41,12.705S18.608,2,12.705,2z"/>
</g>
<g>
	<path fill="#FFFFFF" d="M12.705,13.705H8.798c-0.552,0-1-0.448-1-1s0.448-1,1-1h2.907V6.263c0-0.552,0.448-1,1-1s1,0.448,1,1v6.442
		C13.705,13.257,13.257,13.705,12.705,13.705z"/>
</g>
</svg>
