<?xml version="1.0" encoding="utf-8"?>
<!-- Generator: Adobe Illustrator 16.0.0, SVG Export Plug-In . SVG Version: 6.00 Build 0)  -->
<!DOCTYPE svg PUBLIC "-//W3C//DTD SVG 1.1//EN" "http://www.w3.org/Graphics/SVG/1.1/DTD/svg11.dtd">
<svg version="1.1" id="Layer_1" xmlns="http://www.w3.org/2000/svg" xmlns:xlink="http://www.w3.org/1999/xlink" x="0px" y="0px"
	 width="20px" height="20px" viewBox="0 0 20 20" style="enable-background:new 0 0 20 20;" xml:space="preserve">
<g>
	<path style="fill:#00C200;" d="M19.3,9.5c0-0.2,0.1-0.4,0.1-0.6c0-0.2,0-0.6,0-0.7c-0.2-4-4.3-7.1-9.4-7.1c-5.2,0-9.4,3.3-9.4,7.5
		c0,3.8,3.6,6.9,8.2,7.4c0.3,0,0.5,0.3,0.5,0.6L9,18.3c0,0.4,0.4,0.7,0.7,0.5c3.9-1.9,6.2-3.8,7.6-5.5c0.3-0.3,1.1-1.5,1.2-1.8
		C19,11,19.2,10.3,19.3,9.5z"/>
	<path style="fill:#FFFFFF;" d="M4.8,10.1V6.9c0-0.3-0.2-0.5-0.5-0.5l0,0c-0.3,0-0.5,0.2-0.5,0.5v3.6c0,0.3,0.2,0.5,0.5,0.5h1.9
		c0.3,0,0.5-0.2,0.5-0.5l0,0c0-0.3-0.2-0.5-0.5-0.5H4.8z"/>
	<path style="fill:#FFFFFF;" d="M7.8,11.1H7.6c-0.2,0-0.4-0.2-0.4-0.4V6.8c0-0.2,0.2-0.4,0.4-0.4h0.2c0.2,0,0.4,0.2,0.4,0.4v3.8
		C8.2,10.9,8,11.1,7.8,11.1z"/>
	<path style="fill:#FFFFFF;" d="M11.7,6.9v2.2c0,0-1.9-2.5-2-2.5C9.6,6.5,9.5,6.5,9.4,6.5C9.1,6.5,8.9,6.7,8.9,7v3.6
		c0,0.3,0.2,0.5,0.5,0.5l0,0c0.3,0,0.5-0.2,0.5-0.5V8.4c0,0,2,2.5,2,2.6c0.1,0.1,0.2,0.1,0.3,0.1c0.3,0,0.5-0.2,0.5-0.5V6.9
		c0-0.3-0.2-0.5-0.5-0.5l0,0C11.9,6.5,11.7,6.7,11.7,6.9z"/>
	<path style="fill:#FFFFFF;" d="M16.3,6.9L16.3,6.9c0-0.3-0.2-0.5-0.5-0.5h-1.9c-0.3,0-0.5,0.2-0.5,0.5v3.6c0,0.3,0.2,0.5,0.5,0.5
		h1.9c0.3,0,0.5-0.2,0.5-0.5l0,0c0-0.3-0.2-0.5-0.5-0.5h-1.4V9.2h1.4c0.3,0,0.5-0.2,0.5-0.5l0,0c0-0.3-0.2-0.5-0.5-0.5h-1.4V7.4h1.4
		C16,7.4,16.3,7.2,16.3,6.9z"/>
</g>
</svg>
