<?xml version="1.0" encoding="utf-8"?>
<!-- Generator: Adobe Illustrator 16.0.0, SVG Export Plug-In . SVG Version: 6.00 Build 0)  -->
<!DOCTYPE svg PUBLIC "-//W3C//DTD SVG 1.1//EN" "http://www.w3.org/Graphics/SVG/1.1/DTD/svg11.dtd" [
	<!ENTITY ns_extend "http://ns.adobe.com/Extensibility/1.0/">
	<!ENTITY ns_ai "http://ns.adobe.com/AdobeIllustrator/10.0/">
	<!ENTITY ns_graphs "http://ns.adobe.com/Graphs/1.0/">
	<!ENTITY ns_vars "http://ns.adobe.com/Variables/1.0/">
	<!ENTITY ns_imrep "http://ns.adobe.com/ImageReplacement/1.0/">
	<!ENTITY ns_sfw "http://ns.adobe.com/SaveForWeb/1.0/">
	<!ENTITY ns_custom "http://ns.adobe.com/GenericCustomNamespace/1.0/">
	<!ENTITY ns_adobe_xpath "http://ns.adobe.com/XPath/1.0/">
]>
<svg version="1.1" id="Layer_1" xmlns:x="&ns_extend;" xmlns:i="&ns_ai;" xmlns:graph="&ns_graphs;"
	 xmlns="http://www.w3.org/2000/svg" xmlns:xlink="http://www.w3.org/1999/xlink" x="0px" y="0px" width="40px" height="40px"
	 viewBox="0 0 40 40" enable-background="new 0 0 40 40" xml:space="preserve">
<metadata>
	<sfw  xmlns="&ns_sfw;">
		<slices></slices>
		<sliceSourceBounds  width="36.074" height="33.731" y="-36.866" x="1.963" bottomLeftOrigin="true"></sliceSourceBounds>
	</sfw>
</metadata>
<g>
	<path fill="#040000" d="M36.977,12.767h-7.772c-0.585,0-1.062,0.476-1.062,1.062v1.277l0.077,0.074
		c0.465,0.442,0.914,0.859,1.346,1.242l0.699,0.505V14.89h5.651v19.3h-5.651v-0.445v-0.5v-0.189v-0.121v-0.5V18.249l-0.001-0.059
		l-0.002-0.502h0.003v-1.377l-0.387-0.277c-0.408-0.364-0.854-0.777-1.313-1.215l-0.034-0.032c-2.807-2.684-6.114-6.387-6.252-8.034
		c-0.005-0.079-0.019-0.156-0.041-0.227c-0.107-0.347-1.121-3.39-3.74-3.39c-1.301,0-3.511,0.611-3.698,4.704
		c-0.059,1.319-0.042,4.204-0.015,6.49l-4.074-0.054c-0.092,0.001-0.178,0.011-0.26,0.03l-4.875-0.044
		c-1.992,0-3.613,1.622-3.613,3.615c0,0.962,0.383,1.879,1.059,2.555c-0.676,0.677-1.059,1.593-1.059,2.554
		c0,0.963,0.383,1.879,1.059,2.555c-0.676,0.676-1.059,1.592-1.059,2.555c0,0.965,0.383,1.881,1.059,2.555
		c-0.676,0.676-1.059,1.594-1.059,2.557c0,1.994,1.619,3.615,3.606,3.615l5.126,0.045h0.009c0.08,0,0.151-0.006,0.167-0.016h12.257
		c0.135,0,0.269-0.025,0.395-0.076l4.62-1.848l0,0v0.326c0,0.584,0.477,1.061,1.062,1.061h7.772c0.585,0,1.061-0.477,1.061-1.061
		V13.829C38.037,13.243,37.562,12.767,36.977,12.767z M10.563,34.74c-0.014,0.002-0.028,0.002-0.041,0.004l-4.945-0.047
		c-0.823,0-1.493-0.67-1.493-1.492c0-0.824,0.67-1.496,1.493-1.496c0.585,0,1.062-0.475,1.062-1.061
		c0-0.584-0.477-1.059-1.062-1.059c-0.823,0-1.493-0.672-1.493-1.496c0-0.822,0.67-1.492,1.493-1.492
		c0.585,0,1.062-0.477,1.062-1.063c0-0.584-0.477-1.061-1.062-1.061c-0.823,0-1.493-0.67-1.493-1.494
		c0-0.822,0.67-1.492,1.493-1.492c0.585,0,1.062-0.477,1.062-1.062S6.161,19.37,5.576,19.37c-0.823,0-1.493-0.67-1.493-1.494
		c0-0.823,0.668-1.493,1.486-1.493l5.153,0.046c0.074,0,0.148-0.009,0.23-0.03l4.952,0.066c0.412-0.002,0.779-0.228,0.959-0.589
		c0.127-0.256,0.146-0.551,0.053-0.817c-0.019-1.324-0.069-5.526,0.003-7.125c0.123-2.679,1.218-2.679,1.578-2.679
		c1.008,0,1.625,1.646,1.68,1.779c0.024,0.2,0.07,0.409,0.135,0.625c0.02,0.068,0.053,0.14,0.076,0.209
		c0.053,0.152,0.103,0.303,0.171,0.461c0.038,0.089,0.09,0.182,0.134,0.273c0.068,0.143,0.133,0.285,0.213,0.432
		c0.053,0.097,0.116,0.198,0.174,0.296c0.084,0.145,0.165,0.289,0.258,0.436c0.065,0.103,0.14,0.207,0.208,0.311
		c0.098,0.146,0.191,0.291,0.296,0.438c0.076,0.108,0.159,0.216,0.239,0.324c0.106,0.145,0.21,0.289,0.322,0.434
		c0.086,0.112,0.179,0.224,0.268,0.336c0.111,0.14,0.222,0.28,0.336,0.419c0.097,0.116,0.196,0.23,0.294,0.346
		c0.114,0.134,0.227,0.269,0.343,0.402c0.103,0.118,0.208,0.233,0.312,0.35c0.113,0.126,0.226,0.253,0.339,0.377
		c0.109,0.12,0.218,0.235,0.327,0.352c0.11,0.117,0.22,0.236,0.328,0.351c0.113,0.119,0.224,0.232,0.336,0.347
		c0.103,0.106,0.205,0.213,0.306,0.316c0.118,0.12,0.231,0.233,0.347,0.348c0.091,0.091,0.183,0.184,0.271,0.271
		c0.119,0.119,0.232,0.228,0.348,0.34c0.078,0.076,0.157,0.154,0.232,0.226c0.117,0.113,0.227,0.216,0.337,0.321
		c0.063,0.061,0.13,0.124,0.19,0.182c0.118,0.111,0.225,0.21,0.331,0.309c0.043,0.04,0.088,0.082,0.128,0.119
		c0.122,0.112,0.229,0.21,0.331,0.303c0.011,0.01,0.025,0.023,0.036,0.033v15.317l-5.217,2.088H10.704
		C10.64,34.729,10.587,34.734,10.563,34.74z"/>
</g>
</svg>
