<?xml version="1.0" encoding="utf-8"?>
<!-- Generator: Adobe Illustrator 16.0.0, SVG Export Plug-In . SVG Version: 6.00 Build 0)  -->
<!DOCTYPE svg PUBLIC "-//W3C//DTD SVG 1.1//EN" "http://www.w3.org/Graphics/SVG/1.1/DTD/svg11.dtd" [
	<!ENTITY ns_extend "http://ns.adobe.com/Extensibility/1.0/">
	<!ENTITY ns_ai "http://ns.adobe.com/AdobeIllustrator/10.0/">
	<!ENTITY ns_graphs "http://ns.adobe.com/Graphs/1.0/">
	<!ENTITY ns_vars "http://ns.adobe.com/Variables/1.0/">
	<!ENTITY ns_imrep "http://ns.adobe.com/ImageReplacement/1.0/">
	<!ENTITY ns_sfw "http://ns.adobe.com/SaveForWeb/1.0/">
	<!ENTITY ns_custom "http://ns.adobe.com/GenericCustomNamespace/1.0/">
	<!ENTITY ns_adobe_xpath "http://ns.adobe.com/XPath/1.0/">
]>
<svg version="1.1" id="Layer_1" xmlns:x="&ns_extend;" xmlns:i="&ns_ai;" xmlns:graph="&ns_graphs;"
	 xmlns="http://www.w3.org/2000/svg" xmlns:xlink="http://www.w3.org/1999/xlink" x="0px" y="0px" width="38.6px" height="40.8px"
	 viewBox="0 0 38.6 40.8" enable-background="new 0 0 38.6 40.8" xml:space="preserve">
<metadata>
	<sfw  xmlns="&ns_sfw;">
		<slices></slices>
		<sliceSourceBounds  height="23.3" width="35.5" x="1.75" y="8.85" bottomLeftOrigin="true"></sliceSourceBounds>
	</sfw>
</metadata>
<g>
	<g>
		<path fill="#FFFFFF" d="M15.6,32.05c-0.446,0-0.893-0.17-1.234-0.51c-0.685-0.682-0.688-1.789-0.006-2.475l19.701-19.8
			c0.682-0.686,1.788-0.688,2.475-0.006c0.686,0.682,0.688,1.79,0.006,2.475l-19.7,19.8C16.498,31.878,16.049,32.05,15.6,32.05z"/>
	</g>
	<g>
		<path fill="#FFFFFF" d="M15.6,32.05c-0.45,0-0.9-0.173-1.243-0.518l-12.3-12.4c-0.681-0.686-0.676-1.794,0.01-2.475
			c0.687-0.68,1.795-0.675,2.475,0.01l12.3,12.4c0.681,0.687,0.676,1.794-0.01,2.475C16.491,31.881,16.045,32.05,15.6,32.05z"/>
	</g>
</g>
</svg>
