<?xml version="1.0" encoding="utf-8"?>
<!-- Generator: Adobe Illustrator 16.0.0, SVG Export Plug-In . SVG Version: 6.00 Build 0)  -->
<!DOCTYPE svg PUBLIC "-//W3C//DTD SVG 1.1//EN" "http://www.w3.org/Graphics/SVG/1.1/DTD/svg11.dtd" [
	<!ENTITY ns_extend "http://ns.adobe.com/Extensibility/1.0/">
	<!ENTITY ns_ai "http://ns.adobe.com/AdobeIllustrator/10.0/">
	<!ENTITY ns_graphs "http://ns.adobe.com/Graphs/1.0/">
	<!ENTITY ns_vars "http://ns.adobe.com/Variables/1.0/">
	<!ENTITY ns_imrep "http://ns.adobe.com/ImageReplacement/1.0/">
	<!ENTITY ns_sfw "http://ns.adobe.com/SaveForWeb/1.0/">
	<!ENTITY ns_custom "http://ns.adobe.com/GenericCustomNamespace/1.0/">
	<!ENTITY ns_adobe_xpath "http://ns.adobe.com/XPath/1.0/">
]>
<svg version="1.1" id="Layer_1" xmlns:x="&ns_extend;" xmlns:i="&ns_ai;" xmlns:graph="&ns_graphs;"
	 xmlns="http://www.w3.org/2000/svg" xmlns:xlink="http://www.w3.org/1999/xlink" x="0px" y="0px" width="40px" height="40px"
	 viewBox="0 0 40 40" enable-background="new 0 0 40 40" xml:space="preserve">
<metadata>
	<sfw  xmlns="&ns_sfw;">
		<slices></slices>
		<sliceSourceBounds  height="39.477" width="39.479" x="-0.214" y="0.784" bottomLeftOrigin="true"></sliceSourceBounds>
	</sfw>
</metadata>
<g>
	<polygon fill="#767777" points="18.639,8.441 18.639,20.904 19.88,22.146 29.296,22.146 29.296,19.374 21.41,19.374 21.41,8.441 	
		"/>
	<path fill="#767777" d="M20.025,0.239c-10.884,0-19.739,8.855-19.739,19.739c0,10.883,8.855,19.738,19.739,19.738h1.386v-2.771
		h-1.386c-9.355,0-16.967-7.611-16.967-16.966c0-9.355,7.611-16.967,16.967-16.967c9.356,0,16.967,7.611,16.967,16.967
		c0,6.228-3.403,11.945-8.883,14.918c-0.659,0.36-1.352,0.679-2.06,0.948l-1.298,0.492l0.986,2.59l1.295-0.491
		c0.811-0.308,1.618-0.678,2.402-1.102c6.371-3.463,10.329-10.113,10.329-17.356C39.765,9.094,30.909,0.239,20.025,0.239z"/>
</g>
</svg>
