<?xml version="1.0" encoding="utf-8"?>
<!-- Generator: Adobe Illustrator 16.0.0, SVG Export Plug-In . SVG Version: 6.00 Build 0)  -->
<!DOCTYPE svg PUBLIC "-//W3C//DTD SVG 1.1//EN" "http://www.w3.org/Graphics/SVG/1.1/DTD/svg11.dtd" [
	<!ENTITY ns_extend "http://ns.adobe.com/Extensibility/1.0/">
	<!ENTITY ns_ai "http://ns.adobe.com/AdobeIllustrator/10.0/">
	<!ENTITY ns_graphs "http://ns.adobe.com/Graphs/1.0/">
	<!ENTITY ns_vars "http://ns.adobe.com/Variables/1.0/">
	<!ENTITY ns_imrep "http://ns.adobe.com/ImageReplacement/1.0/">
	<!ENTITY ns_sfw "http://ns.adobe.com/SaveForWeb/1.0/">
	<!ENTITY ns_custom "http://ns.adobe.com/GenericCustomNamespace/1.0/">
	<!ENTITY ns_adobe_xpath "http://ns.adobe.com/XPath/1.0/">
]>
<svg version="1.1" id="Layer_1" xmlns:x="&ns_extend;" xmlns:i="&ns_ai;" xmlns:graph="&ns_graphs;"
	 xmlns="http://www.w3.org/2000/svg" xmlns:xlink="http://www.w3.org/1999/xlink" x="0px" y="0px" width="38.6px" height="40.8px"
	 viewBox="0 0 38.6 40.8" enable-background="new 0 0 38.6 40.8" xml:space="preserve">
<metadata>
	<sfw  xmlns="&ns_sfw;">
		<slices></slices>
		<sliceSourceBounds  height="39.334" width="30.105" x="4.444" y="1.373" bottomLeftOrigin="true"></sliceSourceBounds>
	</sfw>
</metadata>
<g>
	<path fill="#777777" d="M32.6,39.527H5.994c-0.966,0-1.75-0.783-1.75-1.75V10.862c0-0.966,0.784-1.75,1.75-1.75H32.6
		c0.967,0,1.75,0.784,1.75,1.75v26.915C34.35,38.744,33.567,39.527,32.6,39.527z M7.744,36.027H30.85V12.612H7.744V36.027z"/>
</g>
<g>
	<path fill="#777777" d="M19.298,23.298c-4.068,0-7.378-3.31-7.378-7.378v-1.287c0-0.966,0.784-1.75,1.75-1.75s1.75,0.784,1.75,1.75
		v1.287c0,2.138,1.74,3.878,3.878,3.878c2.138,0,3.876-1.74,3.876-3.878v-1.287c0-0.966,0.783-1.75,1.75-1.75s1.75,0.784,1.75,1.75
		v1.287C26.674,19.989,23.365,23.298,19.298,23.298z"/>
</g>
<g>
	<path fill="#777777" d="M24.924,11.448c-0.967,0-1.75-0.784-1.75-1.75V7.57c0-2.138-1.738-3.877-3.876-3.877
		c-2.138,0-3.878,1.739-3.878,3.877v2.127c0,0.966-0.784,1.75-1.75,1.75s-1.75-0.784-1.75-1.75V7.57c0-4.068,3.31-7.377,7.378-7.377
		c4.067,0,7.376,3.31,7.376,7.377v2.127C26.674,10.664,25.891,11.448,24.924,11.448z"/>
</g>
</svg>
