<?xml version="1.0" encoding="utf-8"?>
<!-- Generator: Adobe Illustrator 16.0.0, SVG Export Plug-In . SVG Version: 6.00 Build 0)  -->
<!DOCTYPE svg PUBLIC "-//W3C//DTD SVG 1.1//EN" "http://www.w3.org/Graphics/SVG/1.1/DTD/svg11.dtd" [
	<!ENTITY ns_extend "http://ns.adobe.com/Extensibility/1.0/">
	<!ENTITY ns_ai "http://ns.adobe.com/AdobeIllustrator/10.0/">
	<!ENTITY ns_graphs "http://ns.adobe.com/Graphs/1.0/">
	<!ENTITY ns_vars "http://ns.adobe.com/Variables/1.0/">
	<!ENTITY ns_imrep "http://ns.adobe.com/ImageReplacement/1.0/">
	<!ENTITY ns_sfw "http://ns.adobe.com/SaveForWeb/1.0/">
	<!ENTITY ns_custom "http://ns.adobe.com/GenericCustomNamespace/1.0/">
	<!ENTITY ns_adobe_xpath "http://ns.adobe.com/XPath/1.0/">
]>
<svg version="1.1" id="Layer_1" xmlns:x="&ns_extend;" xmlns:i="&ns_ai;" xmlns:graph="&ns_graphs;"
	 xmlns="http://www.w3.org/2000/svg" xmlns:xlink="http://www.w3.org/1999/xlink" x="0px" y="0px" width="39.858px"
	 height="28.618px" viewBox="0 0 39.858 28.618" enable-background="new 0 0 39.858 28.618" xml:space="preserve">
<metadata>
	<sfw  xmlns="&ns_sfw;">
		<slices></slices>
		<sliceSourceBounds  height="28.617" width="39.857" x="1.462" y="-35.164" bottomLeftOrigin="true"></sliceSourceBounds>
	</sfw>
</metadata>
<g>
	<g>
		<path fill="#767777" d="M38.608,28.618H1.25c-0.69,0-1.25-0.561-1.25-1.25v-7.209c0-0.691,0.56-1.25,1.25-1.25
			c1.578,0,3.484-2.053,3.484-4.6c0-2.547-1.906-4.599-3.484-4.599C0.56,9.71,0,9.15,0,8.46V1.25C0,0.56,0.56,0,1.25,0h37.358
			c0.689,0,1.25,0.56,1.25,1.25v7.21c0,0.69-0.561,1.25-1.25,1.25c-1.578,0-3.484,2.052-3.484,4.599c0,2.547,1.906,4.6,3.484,4.6
			c0.689,0,1.25,0.559,1.25,1.25v7.209C39.858,28.057,39.297,28.618,38.608,28.618z M2.5,26.118h34.858v-4.889
			c-2.602-0.742-4.734-3.707-4.734-6.92c0-3.212,2.133-6.177,4.734-6.92V2.5H2.5v4.889c2.602,0.743,4.734,3.708,4.734,6.92
			c0,3.213-2.133,6.178-4.734,6.92V26.118z"/>
	</g>
	<g>
		<g>
			<path fill="#767777" d="M19.954,15.559h-0.049c-0.691,0-1.25-0.561-1.25-1.25c0-0.69,0.56-1.25,1.25-1.25
				c0.689,0,1.273,0.56,1.273,1.25C21.178,14.999,20.645,15.559,19.954,15.559z"/>
		</g>
		<g>
			<path fill="#767777" d="M14.673,15.559h-0.05c-0.69,0-1.25-0.561-1.25-1.25c0-0.69,0.56-1.25,1.25-1.25s1.274,0.56,1.274,1.25
				C15.897,14.999,15.363,15.559,14.673,15.559z"/>
		</g>
		<g>
			<path fill="#767777" d="M25.235,15.559h-0.051c-0.689,0-1.25-0.561-1.25-1.25c0-0.69,0.561-1.25,1.25-1.25
				c0.691,0,1.275,0.56,1.275,1.25C26.459,14.999,25.924,15.559,25.235,15.559z"/>
		</g>
	</g>
</g>
</svg>
