<?xml version="1.0" encoding="utf-8"?>
<!-- Generator: Adobe Illustrator 16.0.0, SVG Export Plug-In . SVG Version: 6.00 Build 0)  -->
<!DOCTYPE svg PUBLIC "-//W3C//DTD SVG 1.1//EN" "http://www.w3.org/Graphics/SVG/1.1/DTD/svg11.dtd" [
	<!ENTITY ns_extend "http://ns.adobe.com/Extensibility/1.0/">
	<!ENTITY ns_ai "http://ns.adobe.com/AdobeIllustrator/10.0/">
	<!ENTITY ns_graphs "http://ns.adobe.com/Graphs/1.0/">
	<!ENTITY ns_vars "http://ns.adobe.com/Variables/1.0/">
	<!ENTITY ns_imrep "http://ns.adobe.com/ImageReplacement/1.0/">
	<!ENTITY ns_sfw "http://ns.adobe.com/SaveForWeb/1.0/">
	<!ENTITY ns_custom "http://ns.adobe.com/GenericCustomNamespace/1.0/">
	<!ENTITY ns_adobe_xpath "http://ns.adobe.com/XPath/1.0/">
]>
<svg version="1.1" id="Layer_1" xmlns:x="&ns_extend;" xmlns:i="&ns_ai;" xmlns:graph="&ns_graphs;"
	 xmlns="http://www.w3.org/2000/svg" xmlns:xlink="http://www.w3.org/1999/xlink" x="0px" y="0px" width="32.347px"
	 height="28.636px" viewBox="0 0 32.347 28.636" enable-background="new 0 0 32.347 28.636" xml:space="preserve">
<metadata>
	<sfw  xmlns="&ns_sfw;">
		<slices></slices>
		<sliceSourceBounds  width="32.346" height="28.636" x="3.835" y="-34.924" bottomLeftOrigin="true"></sliceSourceBounds>
	</sfw>
</metadata>
<g>
	<rect y="9.728" fill="#212121" width="8.125" height="18.908"/>
	<path fill="#212121" d="M29.865,9.689h-8.159l1.179-4.971L22.24,0.975C22.067,0.397,21.535,0,20.932,0h-2.403
		c-0.755,0-1.365,0.611-1.365,1.366v2.622l-4.227,5.702H10.2v18.946h14.3c2.227,0,4.129-1.607,4.5-3.805l1.063-7.375l1.627-1.34
		c0.012-0.01,0.021-0.025,0.021-0.042l0.635-3.632c0.003-0.019-0.004-0.039-0.017-0.054l-2.415-2.677
		C29.901,9.697,29.883,9.689,29.865,9.689z"/>
</g>
</svg>
