<?xml version="1.0" encoding="utf-8"?>
<!-- Generator: Adobe Illustrator 16.0.0, SVG Export Plug-In . SVG Version: 6.00 Build 0)  -->
<!DOCTYPE svg PUBLIC "-//W3C//DTD SVG 1.1//EN" "http://www.w3.org/Graphics/SVG/1.1/DTD/svg11.dtd" [
	<!ENTITY ns_extend "http://ns.adobe.com/Extensibility/1.0/">
	<!ENTITY ns_ai "http://ns.adobe.com/AdobeIllustrator/10.0/">
	<!ENTITY ns_graphs "http://ns.adobe.com/Graphs/1.0/">
	<!ENTITY ns_vars "http://ns.adobe.com/Variables/1.0/">
	<!ENTITY ns_imrep "http://ns.adobe.com/ImageReplacement/1.0/">
	<!ENTITY ns_sfw "http://ns.adobe.com/SaveForWeb/1.0/">
	<!ENTITY ns_custom "http://ns.adobe.com/GenericCustomNamespace/1.0/">
	<!ENTITY ns_adobe_xpath "http://ns.adobe.com/XPath/1.0/">
]>
<svg version="1.1" id="Layer_1" xmlns:x="&ns_extend;" xmlns:i="&ns_ai;" xmlns:graph="&ns_graphs;"
	 xmlns="http://www.w3.org/2000/svg" xmlns:xlink="http://www.w3.org/1999/xlink" x="0px" y="0px" width="40px" height="40px"
	 viewBox="0 0 40 40" enable-background="new 0 0 40 40" xml:space="preserve">
<metadata>
	<sfw  xmlns="&ns_sfw;">
		<slices></slices>
		<sliceSourceBounds  width="33.653" height="30.27" y="-35.135" x="3.174" bottomLeftOrigin="true"></sliceSourceBounds>
	</sfw>
</metadata>
<g>
	<g>
		<g>
			<path fill="#040000" d="M35.577,35.135H4.424c-0.69,0-1.25-0.56-1.25-1.25s0.56-1.25,1.25-1.25h31.153
				c0.69,0,1.25,0.56,1.25,1.25S36.268,35.135,35.577,35.135z"/>
		</g>
		<g>
			<path fill="#040000" d="M25.595,21.25H4.424c-0.69,0-1.25-0.56-1.25-1.25s0.56-1.25,1.25-1.25h21.171c0.69,0,1.25,0.56,1.25,1.25
				S26.285,21.25,25.595,21.25z"/>
		</g>
		<g>
			<path fill="#040000" d="M35.577,7.365H4.424c-0.69,0-1.25-0.56-1.25-1.25s0.56-1.25,1.25-1.25h31.153c0.69,0,1.25,0.56,1.25,1.25
				S36.268,7.365,35.577,7.365z"/>
		</g>
	</g>
</g>
</svg>
