<?xml version="1.0" encoding="utf-8"?>
<!-- Generator: Adobe Illustrator 16.0.0, SVG Export Plug-In . SVG Version: 6.00 Build 0)  -->
<!DOCTYPE svg PUBLIC "-//W3C//DTD SVG 1.1//EN" "http://www.w3.org/Graphics/SVG/1.1/DTD/svg11.dtd" [
	<!ENTITY ns_extend "http://ns.adobe.com/Extensibility/1.0/">
	<!ENTITY ns_ai "http://ns.adobe.com/AdobeIllustrator/10.0/">
	<!ENTITY ns_graphs "http://ns.adobe.com/Graphs/1.0/">
	<!ENTITY ns_vars "http://ns.adobe.com/Variables/1.0/">
	<!ENTITY ns_imrep "http://ns.adobe.com/ImageReplacement/1.0/">
	<!ENTITY ns_sfw "http://ns.adobe.com/SaveForWeb/1.0/">
	<!ENTITY ns_custom "http://ns.adobe.com/GenericCustomNamespace/1.0/">
	<!ENTITY ns_adobe_xpath "http://ns.adobe.com/XPath/1.0/">
]>
<svg version="1.1" id="Layer_1" xmlns:x="&ns_extend;" xmlns:i="&ns_ai;" xmlns:graph="&ns_graphs;"
	 xmlns="http://www.w3.org/2000/svg" xmlns:xlink="http://www.w3.org/1999/xlink" x="0px" y="0px" width="38.6px" height="40.8px"
	 viewBox="0 0 38.6 40.8" enable-background="new 0 0 38.6 40.8" xml:space="preserve">
<metadata>
	<sfw  xmlns="&ns_sfw;">
		<slices></slices>
		<sliceSourceBounds  height="38.334" width="29.105" x="4.694" y="1.566" bottomLeftOrigin="true"></sliceSourceBounds>
	</sfw>
</metadata>
<g>
	<path fill="#030000" d="M32.35,39.333H5.744c-0.69,0-1.25-0.559-1.25-1.25V11.169c0-0.69,0.56-1.25,1.25-1.25H32.35
		c0.69,0,1.25,0.56,1.25,1.25v26.915C33.6,38.775,33.04,39.333,32.35,39.333z M6.994,36.833H31.1V12.419H6.994V36.833z"/>
</g>
<g>
	<path fill="#030000" d="M19.048,23.105c-3.793,0-6.878-3.084-6.878-6.877v-1.287c0-0.69,0.56-1.25,1.25-1.25s1.25,0.56,1.25,1.25
		v1.287c0,2.414,1.964,4.378,4.378,4.378c2.413,0,4.376-1.964,4.376-4.378v-1.287c0-0.69,0.56-1.25,1.25-1.25s1.25,0.56,1.25,1.25
		v1.287C25.924,20.021,22.839,23.105,19.048,23.105z"/>
</g>
<g>
	<path fill="#030000" d="M24.674,11.255c-0.69,0-1.25-0.56-1.25-1.25V7.877c0-2.414-1.963-4.377-4.376-4.377
		c-2.414,0-4.378,1.964-4.378,4.377v2.127c0,0.69-0.56,1.25-1.25,1.25s-1.25-0.56-1.25-1.25V7.877C12.17,4.085,15.255,1,19.048,1
		c3.791,0,6.876,3.085,6.876,6.877v2.127C25.924,10.695,25.365,11.255,24.674,11.255z"/>
</g>
</svg>
