<?xml version="1.0" encoding="utf-8"?>
<!-- Generator: Adobe Illustrator 16.0.0, SVG Export Plug-In . SVG Version: 6.00 Build 0)  -->
<!DOCTYPE svg PUBLIC "-//W3C//DTD SVG 1.1//EN" "http://www.w3.org/Graphics/SVG/1.1/DTD/svg11.dtd" [
	<!ENTITY ns_extend "http://ns.adobe.com/Extensibility/1.0/">
	<!ENTITY ns_ai "http://ns.adobe.com/AdobeIllustrator/10.0/">
	<!ENTITY ns_graphs "http://ns.adobe.com/Graphs/1.0/">
	<!ENTITY ns_vars "http://ns.adobe.com/Variables/1.0/">
	<!ENTITY ns_imrep "http://ns.adobe.com/ImageReplacement/1.0/">
	<!ENTITY ns_sfw "http://ns.adobe.com/SaveForWeb/1.0/">
	<!ENTITY ns_custom "http://ns.adobe.com/GenericCustomNamespace/1.0/">
	<!ENTITY ns_adobe_xpath "http://ns.adobe.com/XPath/1.0/">
]>
<svg version="1.1" id="Layer_1" xmlns:x="&ns_extend;" xmlns:i="&ns_ai;" xmlns:graph="&ns_graphs;"
	 xmlns="http://www.w3.org/2000/svg" xmlns:xlink="http://www.w3.org/1999/xlink" x="0px" y="0px" width="29.105px"
	 height="27.293px" viewBox="0 0 29.105 27.293" enable-background="new 0 0 29.105 27.293" xml:space="preserve">
<metadata>
	<sfw  xmlns="&ns_sfw;">
		<slices></slices>
		<sliceSourceBounds  height="27.293" width="29.105" x="313.715" y="-143.429" bottomLeftOrigin="true"></sliceSourceBounds>
	</sfw>
</metadata>
<g>
	<path fill="#FFFFFF" d="M27.855,27.293H1.25c-0.69,0-1.25-0.56-1.25-1.25v-6.915c0-0.69,0.56-1.25,1.25-1.25s1.25,0.56,1.25,1.25
		v5.665h24.105v-5.665c0-0.69,0.56-1.25,1.25-1.25s1.25,0.56,1.25,1.25v6.915C29.105,26.733,28.546,27.293,27.855,27.293z"/>
</g>
<g>
	<g>
		<path fill="#FFFFFF" d="M14.552,19.527L14.552,19.527c-0.332,0-0.649-0.132-0.884-0.366l-6.385-6.386
			c-0.488-0.488-0.488-1.279,0-1.768s1.279-0.488,1.768,0l5.501,5.502l5.502-5.502c0.488-0.488,1.279-0.488,1.768,0
			s0.488,1.279,0,1.768l-6.386,6.386C15.201,19.396,14.883,19.527,14.552,19.527z"/>
	</g>
	<g>
		<path fill="#FFFFFF" d="M14.552,19.527c-0.69,0-1.25-0.56-1.25-1.25V1.25c0-0.69,0.56-1.25,1.25-1.25s1.25,0.56,1.25,1.25v17.027
			C15.802,18.968,15.242,19.527,14.552,19.527z"/>
	</g>
</g>
</svg>
